<?xml version="1.0" encoding="UTF-8" standalone="no"?>
<svg
   xmlns:dc="http://purl.org/dc/elements/1.1/"
   xmlns:cc="http://creativecommons.org/ns#"
   xmlns:rdf="http://www.w3.org/1999/02/22-rdf-syntax-ns#"
   xmlns:svg="http://www.w3.org/2000/svg"
   xmlns="http://www.w3.org/2000/svg"
   xmlns:sodipodi="http://sodipodi.sourceforge.net/DTD/sodipodi-0.dtd"
   xmlns:inkscape="http://www.inkscape.org/namespaces/inkscape"
   version="1.1"
   x="0px"
   y="0px"
   viewBox="0 0 74.400002 74.400001"
   enable-background="new 0 0 100 100"
   xml:space="preserve"
   id="svg2"
   inkscape:version="0.91 r13725"
   sodipodi:docname="noun_virus.svg"
   width="74.400002"
   height="74.400002"
   inkscape:export-filename="/Users/justineboone/Documents/GitHub/npm-audit-widget/img/logo.png"
   inkscape:export-xdpi="111.29032"
   inkscape:export-ydpi="111.29032"><metadata
     id="metadata50"><rdf:RDF><cc:Work
         rdf:about=""><dc:format>image/svg+xml</dc:format><dc:type
           rdf:resource="http://purl.org/dc/dcmitype/StillImage" /><dc:title></dc:title></cc:Work></rdf:RDF></metadata><defs
     id="defs48" /><sodipodi:namedview
     pagecolor="#ffffff"
     bordercolor="#666666"
     borderopacity="1"
     objecttolerance="10"
     gridtolerance="10"
     guidetolerance="10"
     inkscape:pageopacity="0"
     inkscape:pageshadow="2"
     inkscape:window-width="1920"
     inkscape:window-height="1035"
     id="namedview46"
     showgrid="false"
     inkscape:zoom="5.3400704"
     inkscape:cx="11.853592"
     inkscape:cy="24.329958"
     inkscape:window-x="1920"
     inkscape:window-y="23"
     inkscape:window-maximized="1"
     inkscape:current-layer="svg2" /><g
     display="none"
     id="g8"
     style="display:none"
     transform="translate(0,-50.600018)"><polygon
       display="inline"
       stroke-miterlimit="10"
       points="50,11 68,21.1 68,41.4 50,51.5 32,41.4 32,21.1 "
       id="polygon10"
       style="display:inline;fill:none;stroke:#000000;stroke-width:4;stroke-linecap:round;stroke-linejoin:round;stroke-miterlimit:10" /><line
       display="inline"
       stroke-miterlimit="10"
       x1="50"
       y1="75"
       x2="50"
       y2="51"
       id="line12"
       style="display:inline;fill:none;stroke:#000000;stroke-width:4;stroke-linecap:round;stroke-linejoin:round;stroke-miterlimit:10" /><line
       display="inline"
       stroke-miterlimit="10"
       x1="39.900002"
       y1="79.900002"
       x2="46"
       y2="86"
       id="line14"
       style="display:inline;fill:none;stroke:#000000;stroke-width:4;stroke-linecap:round;stroke-linejoin:round;stroke-miterlimit:10" /><polyline
       display="inline"
       stroke-miterlimit="10"
       points="     85.4,69.9 70.6,55.1 49.8,74.2    "
       id="polyline16"
       style="display:inline;fill:none;stroke:#000000;stroke-width:4;stroke-linecap:round;stroke-linejoin:round;stroke-miterlimit:10" /><polyline
       display="inline"
       stroke-miterlimit="10"
       points="     15,69.9 29.8,55.1 48.7,72.3    "
       id="polyline18"
       style="display:inline;fill:none;stroke:#000000;stroke-width:4;stroke-linecap:round;stroke-linejoin:round;stroke-miterlimit:10" /><polyline
       display="inline"
       stroke-miterlimit="10"
       points="     26,82 30,68 50,76.5 70,68 74,82    "
       id="polyline20"
       style="display:inline;fill:none;stroke:#000000;stroke-width:4;stroke-linecap:round;stroke-linejoin:round;stroke-miterlimit:10" /><line
       display="inline"
       stroke-miterlimit="10"
       x1="50"
       y1="76"
       x2="40.900002"
       y2="80"
       id="line22"
       style="display:inline;fill:none;stroke:#000000;stroke-width:4;stroke-linecap:round;stroke-linejoin:round;stroke-miterlimit:10" /><line
       display="inline"
       stroke-miterlimit="10"
       x1="60"
       y1="79.900002"
       x2="53.900002"
       y2="86"
       id="line24"
       style="display:inline;fill:none;stroke:#000000;stroke-width:4;stroke-linecap:round;stroke-linejoin:round;stroke-miterlimit:10" /><line
       display="inline"
       stroke-miterlimit="10"
       x1="49.900002"
       y1="76"
       x2="59.099998"
       y2="80"
       id="line26"
       style="display:inline;fill:none;stroke:#000000;stroke-width:4;stroke-linecap:round;stroke-linejoin:round;stroke-miterlimit:10" /><line
       display="inline"
       stroke-miterlimit="10"
       x1="40"
       y1="26"
       x2="50"
       y2="20"
       id="line28"
       style="display:inline;fill:none;stroke:#000000;stroke-width:4;stroke-linecap:round;stroke-linejoin:round;stroke-miterlimit:10" /><line
       display="inline"
       stroke-miterlimit="10"
       x1="40"
       y1="34"
       x2="57"
       y2="24"
       id="line30"
       style="display:inline;fill:none;stroke:#000000;stroke-width:4;stroke-linecap:round;stroke-linejoin:round;stroke-miterlimit:10" /></g><g
     id="g32"
     style="fill:#c80000"
     transform="matrix(0.85149807,0,0,0.80267921,-5.5452024,-1.7600414)"
     inkscape:export-filename="/Users/justineboone/Documents/GitHub/npm-audit-widget/img/preview.png"
     inkscape:export-xdpi="182.66129"
     inkscape:export-ydpi="182.66129"><g
       id="g34"
       style="fill:#c80000"><path
         d="M 86.8,68.5 72,53.7 C 71.2,52.9 70,52.9 69.2,53.6 L 52,69.5 52,52.7 69,43.1 c 0.6,-0.4 1,-1 1,-1.7 l 0,-20.3 c 0,-0.7 -0.4,-1.4 -1,-1.7 L 51,9.3 C 50.4,9 49.6,9 49,9.3 L 31,19.4 c -0.6,0.4 -1,1 -1,1.7 l 0,20.3 c 0,0.7 0.4,1.4 1,1.7 L 48,52.7 48,69 31.2,53.6 c -0.8,-0.7 -2,-0.7 -2.8,0.1 L 13.6,68.5 c -0.8,0.8 -0.8,2 0,2.8 0.8,0.8 2,0.8 2.8,0 L 29.9,57.8 46.2,72.6 30.8,66.1 c -0.5,-0.2 -1.1,-0.2 -1.6,0 -0.5,0.2 -0.9,0.7 -1.1,1.3 l -4,14 c -0.3,1.1 0.3,2.2 1.4,2.5 1.1,0.3 2.2,-0.3 2.5,-1.4 l 3.4,-11.8 13.1,5.5 -4.1,1.8 c -0.7,-0.2 -1.4,0 -1.9,0.5 -0.8,0.8 -0.8,2 0,2.8 l 6.1,6.1 c 0.4,0.4 0.9,0.6 1.4,0.6 0.5,0 1,-0.2 1.4,-0.6 0.8,-0.8 0.8,-2 0,-2.8 l -3.7,-3.7 5.7,-2.5 c 0.3,0.1 0.7,0.1 1,0 l 5.7,2.5 -3.7,3.7 c -0.8,0.8 -0.8,2 0,2.8 0.4,0.4 0.9,0.6 1.4,0.6 0.5,0 1,-0.2 1.4,-0.6 l 6.1,-6.1 c 0.8,-0.8 0.8,-2 0,-2.8 C 60.8,78 60,77.8 59.4,78 L 55.5,76.3 68.6,70.7 72,82.5 c 0.3,0.9 1.1,1.5 1.9,1.5 0.2,0 0.4,0 0.6,-0.1 1.1,-0.3 1.7,-1.4 1.4,-2.5 l -4,-14 c -0.2,-0.6 -0.5,-1 -1.1,-1.3 -0.5,-0.2 -1.1,-0.3 -1.6,0 L 54.9,72.2 70.5,57.8 84,71.3 c 0.8,0.8 2,0.8 2.8,0 0.8,-0.8 0.8,-2 0,-2.8 z M 34,22.3 l 16,-9 16,9 0,17.9 -15.7,8.8 c -0.1,0 -0.2,0 -0.3,0 -0.1,0 -0.2,0 -0.3,0 L 34,40.2 34,22.3 Z"
         id="path36"
         inkscape:connector-curvature="0"
         style="fill:#c80000" /><path
         d="m 40,28 c 0.4,0 0.7,-0.1 1,-0.3 l 10,-6 C 51.9,21.1 52.3,19.9 51.7,19 51.1,18.1 49.9,17.7 49,18.3 l -10,6 c -0.9,0.6 -1.3,1.8 -0.7,2.7 0.4,0.7 1,1 1.7,1 z"
         id="path38"
         inkscape:connector-curvature="0"
         style="fill:#c80000" /><path
         d="M 58,25.7 C 59,25.1 59.3,23.9 58.7,23 58.1,22 56.9,21.7 56,22.3 l -17,10 c -1,0.6 -1.3,1.8 -0.7,2.7 0.4,0.6 1,1 1.7,1 0.3,0 0.7,-0.1 1,-0.3 l 17,-10 z"
         id="path40"
         inkscape:connector-curvature="0"
         style="fill:#c80000" /></g></g><rect
     style="opacity:1;fill:none;fill-opacity:1;stroke:#aaaaaa;stroke-width:1.86004949;stroke-opacity:1"
     id="rect4149"
     width="72.539948"
     height="72.539948"
     x="0.93002474"
     y="0.9300245"
     ry="10.702617" /></svg>